:SAMPLES-PER-SECOND 30
:FULLY-SPECIFIED
:DEGREES
95
root  -0.545665 29.2111 10.2072 -16.1275 -39.4897 8.15174
RightUpLeg  -31.7069 2.73873 -0.685879
RightLeg  92.9239 3.17471 -30.2385
RightFoot  -28.0603 3.29644 23.4402
RightToes  5.82063e-011 0 -3.6325e-017
Spine  28.1168 -1.91397 0.793736
Spine1  -10.2111 -2.44029 5.91646
HEad  -7.30986 -38.8062 -6.02875
LeftShoulder1  1.0566 -2.00408 -12.0889
LeftArm  -32.1593 14.7971 -30.2497
LeftForeArm  15.8847 -72.9248 -40.1494
LeftHand  -1.09877 1.42815 31.9124
RightShoulder  0.879777 0.91619 13.0002
RightArm  -44.1656 -24.8369 26.6627
RightForeArm  5.56456 73.1775 43.1308
RightHand  -3.29311 3.76926 -40.32
LeftUpLeg  -33.9144 1.73748 -8.63297
LeftLeg  90.1261 -0.101604 -4.74738
LeftFoot  -31.9768 -0.853716 -5.74879
LeftToes  3.99265e-010 -1.33173e-010 6.75004e-011
96
root  -0.448987 29.0302 9.93788 -10.5105 -38.9052 5.86386
RightUpLeg  -36.0147 1.469 0.570576
RightLeg  92.6047 2.76917 -28.1838
RightFoot  -30.7049 3.83676 23.4331
RightToes  5.82063e-011 0 -3.6325e-017
Spine  31.6829 -1.78222 1.47067
Spine1  -17.3851 -1.67605 7.70161
HEad  -8.83054 -39.2801 -4.47244
LeftShoulder1  0.914706 -0.998115 -13.339
LeftArm  -36.8628 24.0515 -29.0602
LeftForeArm  3.6272 -66.7823 -28.0986
LeftHand  -0.657853 3.40994 38.3086
RightShoulder  0.811517 0.441989 13.7041
RightArm  -48.8468 -31.7168 26.4302
RightForeArm  -7.6684 67.6212 31.0915
RightHand  -3.8849 4.05528 -45.6428
LeftUpLeg  -38.7558 -1.25595 -7.70256
LeftLeg  90.2351 -0.24083 -0.954398
LeftFoot  -34.5726 -0.865418 -5.211
LeftToes  3.99265e-010 -1.33173e-010 6.75004e-011
97
root  -0.435507 28.9095 9.75512 -7.51248 -38.7878 4.00362
RightUpLeg  -38.0585 0.103003 1.98544
RightLeg  92.453 2.53457 -26.659
RightFoot  -31.9919 4.01413 22.9569
RightToes  5.82063e-011 0 -3.6325e-017
Spine  33.6591 -1.56284 2.28541
Spine1  -18.8822 -1.0683 7.89625
HEad  -14.0982 -39.845 0.295027
LeftShoulder1  0.987818 -0.859225 -15.8053
LeftArm  -39.7684 29.0906 -29.9502
LeftForeArm  -11.2215 -53.4562 -16.3299
LeftHand  0.441111 6.48316 42.5298
RightShoulder  1.01223 0.885431 16.4065
RightArm  -50.7738 -34.4519 28.353
RightForeArm  -24.0011 54.0587 17.5847
RightHand  -3.73819 3.04638 -48.6988
LeftUpLeg  -40.872 -3.7018 -6.23623
LeftLeg  90.2581 -0.330542 1.2432
LeftFoot  -36.3391 -1.05875 -5.76674
LeftToes  3.99265e-010 -1.33173e-010 6.75004e-011
98
root  -0.441235 28.7529 9.66494 -7.61221 -38.9046 2.59167
RightUpLeg  -37.83 -1.43445 3.16461
RightLeg  93.3191 2.8537 -25.6054
RightFoot  -31.3398 3.82982 22.6726
RightToes  5.82063e-011 0 -3.6325e-017
Spine  33.9516 -1.23858 3.45313
Spine1  -14.9498 -0.670868 7.21201
HEad  -20.4616 -40.6088 5.22
LeftShoulder1  1.42717 -2.02781 -19.214
LeftArm  -40.1487 28.4731 -33.091
LeftForeArm  -24.0816 -35.9328 -9.25218
LeftHand  1.80741 9.76725 44.7482
RightShoulder  1.3533 1.80281 19.0952
RightArm  -50.3963 -32.53 32.5514
RightForeArm  -35.2163 36.6484 9.93111
RightHand  -3.2377 1.81471 -49.2965
LeftUpLeg  -40.3791 -4.90626 -5.05905
LeftLeg  91.1642 -0.392541 2.00859
LeftFoot  -36.481 -1.15493 -6.16667
LeftToes  3.99265e-010 -1.33173e-010 6.75004e-011
99
root  -0.442874 28.5371 9.68991 -9.63327 -38.8314 1.94124
RightUpLeg  -36.651 -2.54795 3.43128
RightLeg  95.2883 3.68489 -24.7468
RightFoot  -29.1315 3.49989 23.3538
RightToes  5.82063e-011 0 -3.6325e-017
Spine  33.6506 -1.19265 5.02544
Spine1  -10.097 -0.395899 5.74099
HEad  -23.7728 -41.6342 7.45219
LeftShoulder1  2.11249 -3.78341 -22.703
LeftArm  -35.8709 25.1705 -37.3115
LeftForeArm  -34.628 -22.4839 -6.34588
LeftHand  2.77977 12.3359 43.6741
RightShoulder  1.67678 2.64433 20.9952
RightArm  -47.0621 -28.8556 38.5672
RightForeArm  -41.9397 24.5261 6.8013
RightHand  -2.80057 0.898483 -48.9439
LeftUpLeg  -38.6283 -5.06946 -4.94483
LeftLeg  92.768 -0.489854 2.48234
LeftFoot  -35.6103 -1.04165 -5.84094
LeftToes  3.99265e-010 -1.33173e-010 6.75004e-011
100
root  -0.467817 28.3415 9.81969 -12.2658 -38.3011 2.30387
RightUpLeg  -35.3191 -2.78441 2.69396
RightLeg  97.3614 4.61787 -24.4642
RightFoot  -26.5185 3.19208 24.9617
RightToes  5.82063e-011 0 -3.6325e-017
Spine  33.0379 -1.50035 6.30285
Spine1  -6.70089 -0.343072 3.74671
HEad  -23.6605 -42.8113 7.53256
LeftShoulder1  2.66649 -4.95249 -25.4039
LeftArm  -28.1174 21.5322 -41.6715
LeftForeArm  -39.2919 -17.8731 -6.37461
LeftHand  2.44025 12.5486 37.5849
RightShoulder  1.90655 3.17389 22.3565
RightArm  -40.2817 -24.5577 45.0051
RightForeArm  -44.6497 20.3475 5.72739
RightHand  -2.35778 0.0642583 -47.6291
LeftUpLeg  -36.6688 -4.57981 -5.81827
LeftLeg  94.1555 -0.547663 2.46122
LeftFoot  -34.5982 -0.848086 -5.13518
LeftToes  3.99265e-010 -1.33173e-010 6.75004e-011
101
root  -0.52836 28.2347 9.99697 -15.1634 -37.3394 3.511
RightUpLeg  -33.6219 -2.23802 1.44385
RightLeg  98.6815 5.4626 -25.4197
RightFoot  -24.152 2.9479 27.2599
RightToes  5.82063e-011 0 -3.6325e-017
Spine  31.6678 -1.73849 6.83838
Spine1  -3.74783 -0.381645 1.75348
HEad  -22.157 -44.298 7.18869
LeftShoulder1  2.91102 -5.45073 -26.4034
LeftArm  -18.3797 16.8018 -45.5712
LeftForeArm  -38.0368 -20.2015 -7.06943
LeftHand  1.10388 9.9683 27.167
RightShoulder  1.99149 3.4048 22.6432
RightArm  -31.466 -19.0227 49.8011
RightForeArm  -41.3482 20.3272 6.28002
RightHand  -2.02655 -0.245211 -43.8902
LeftUpLeg  -34.5566 -3.48078 -7.06946
LeftLeg  94.9096 -0.393488 0.894807
LeftFoot  -33.5791 -0.648347 -4.32861
LeftToes  3.99265e-010 -1.33173e-010 6.75004e-011
102
root  -0.604697 28.1939 10.172 -18.4697 -35.8866 5.00838
RightUpLeg  -31.3224 -1.27861 0.195989
RightLeg  99.3863 6.37126 -27.6227
RightFoot  -21.5496 2.58487 29.9708
RightToes  5.82063e-011 0 -3.6325e-017
Spine  29.9915 -1.74227 6.84115
Spine1  -0.684774 -0.35145 0.203547
HEad  -19.8947 -46.5017 6.47409
LeftShoulder1  2.96238 -5.91885 -25.2969
LeftArm  -7.11547 10.5328 -48.2559
LeftForeArm  -35.4886 -26.5342 -7.14936
LeftHand  0.112122 6.29262 16.2964
RightShoulder  1.93364 3.50116 21.3366
RightArm  -20.6017 -13.1792 51.6783
RightForeArm  -36.6909 23.4576 6.84526
RightHand  -2.03996 0.416536 -39.5258
LeftUpLeg  -32.0257 -1.8714 -8.19225
LeftLeg  95.3369 -0.0108573 -2.13763
LeftFoot  -32.1982 -0.427277 -3.3731
LeftToes  3.99265e-010 -1.33173e-010 6.75004e-011
103
root  -0.686437 28.1592 10.3347 -21.8894 -33.6848 6.22326
RightUpLeg  -28.7105 -0.439973 -0.754487
RightLeg  99.9117 7.4834 -30.5748
RightFoot  -18.3312 1.87705 31.9517
RightToes  5.82063e-011 0 -3.6325e-017
Spine  28.8086 -1.86324 6.41633
Spine1  1.76562 -0.606665 -0.619061
HEad  -16.6693 -48.9683 4.72574
LeftShoulder1  2.87286 -6.41154 -22.6939
LeftArm  -2.99597 4.68251 -48.7654
LeftForeArm  -26.6215 -36.3942 -9.68536
LeftHand  -0.184977 3.32789 9.47719
RightShoulder  1.78586 3.48166 19.1372
RightArm  -16.4163 -9.50102 50.3784
RightForeArm  -28.9002 31.7412 8.37845
RightHand  -2.14241 1.06046 -37.4845
LeftUpLeg  -29.2241 -0.322128 -9.02281
LeftLeg  95.755 0.482038 -5.63204
LeftFoot  -30.4468 -0.208492 -2.32752
LeftToes  3.99265e-010 -1.33173e-010 6.75004e-011
104
root  -0.789525 28.0995 10.4969 -24.6271 -30.844 6.98498
RightUpLeg  -26.4093 -0.0556122 -1.30177
RightLeg  100.25 8.72085 -33.9244
RightFoot  -15.1064 0.981958 32.1028
RightToes  5.82063e-011 0 -3.6325e-017
Spine  27.9272 -2.27166 5.27142
Spine1  3.26737 -1.49355 -0.510339
HEad  -13.1115 -50.7583 2.25596
LeftShoulder1  2.56032 -6.30471 -19.6104
LeftArm  -5.04522 0.949682 -47.0734
LeftForeArm  -15.8626 -49.9556 -14.655
LeftHand  -0.265863 1.735 8.19577
RightShoulder  1.56743 3.12288 17.0577
RightArm  -20.7752 -8.9136 46.4709
RightForeArm  -18.7878 45.1326 12.6027
RightHand  -2.09381 1.25118 -35.6776
LeftUpLeg  -26.7872 0.689991 -9.57278
LeftLeg  96.1328 1.02012 -9.08262
LeftFoot  -28.8362 -0.0446884 -1.42063
LeftToes  3.99265e-010 -1.33173e-010 6.75004e-011
